<svg width="317" height="291" viewBox="0 0 317 291" fill="none" xmlns="http://www.w3.org/2000/svg">
<circle cx="171.5" cy="145.5" r="145.5" fill="#EBB102"/>
<circle cx="145.5" cy="145.5" r="145.5" fill="#FEBF01"/>
<path d="M142.728 210.091V79.1818H151.114V210.091H142.728ZM166.915 121.062C166.438 116.597 164.426 113.119 160.881 110.631C157.37 108.142 152.801 106.898 147.176 106.898C143.222 106.898 139.83 107.494 137 108.688C134.171 109.881 132.006 111.5 130.506 113.545C129.006 115.591 128.239 117.926 128.205 120.551C128.205 122.733 128.699 124.625 129.688 126.227C130.711 127.83 132.091 129.193 133.83 130.318C135.568 131.409 137.495 132.33 139.608 133.08C141.722 133.83 143.853 134.46 146 134.972L155.818 137.426C159.773 138.347 163.574 139.591 167.222 141.159C170.904 142.727 174.193 144.705 177.091 147.091C180.023 149.477 182.341 152.358 184.046 155.733C185.75 159.108 186.603 163.062 186.603 167.597C186.603 173.733 185.034 179.136 181.898 183.807C178.762 188.443 174.228 192.074 168.296 194.699C162.398 197.29 155.256 198.585 146.87 198.585C138.722 198.585 131.648 197.324 125.648 194.801C119.682 192.278 115.012 188.597 111.637 183.756C108.296 178.915 106.489 173.017 106.216 166.062H124.881C125.154 169.71 126.279 172.744 128.256 175.165C130.233 177.585 132.807 179.392 135.978 180.585C139.182 181.778 142.762 182.375 146.716 182.375C150.841 182.375 154.455 181.761 157.557 180.534C160.693 179.273 163.148 177.534 164.921 175.318C166.693 173.068 167.597 170.443 167.631 167.443C167.597 164.716 166.796 162.466 165.228 160.693C163.659 158.886 161.461 157.386 158.631 156.193C155.836 154.966 152.563 153.875 148.813 152.92L136.898 149.852C128.273 147.636 121.455 144.278 116.443 139.778C111.466 135.244 108.978 129.227 108.978 121.727C108.978 115.557 110.648 110.153 113.989 105.517C117.364 100.881 121.949 97.2841 127.745 94.7273C133.54 92.1364 140.103 90.8409 147.432 90.8409C154.864 90.8409 161.375 92.1364 166.966 94.7273C172.591 97.2841 177.006 100.847 180.211 105.415C183.415 109.949 185.068 115.165 185.171 121.062H166.915Z" fill="white"/>
</svg>
